<svg width="26" height="26" viewBox="0 0 26 26" fill="none" xmlns="http://www.w3.org/2000/svg">
<g clip-path="url(#clip0_1_2008)">
<path d="M13 14.7875C10.4812 14.7875 8.36875 12.7563 8.36875 10.1562C8.36875 7.55625 10.4 5.525 13 5.525C15.5188 5.525 17.6313 7.55625 17.6313 10.1562C17.6313 12.7563 15.5188 14.7875 13 14.7875Z" fill="white"/>
<path d="M13 0C5.85 0 0 5.85 0 13C0 20.15 5.85 26 13 26C20.15 26 26 20.15 26 13C26 5.85 20.15 0 13 0ZM19.5813 22.3438V21.125C19.5813 18.2812 17.55 16.0063 14.95 16.0063H11.05C8.53125 15.925 6.5 18.2812 6.5 21.125V22.425C1.3 18.7688 0 11.6187 3.65625 6.5C7.3125 1.38125 14.3813 0 19.5 3.65625C24.6187 7.3125 26 14.3813 22.3438 19.5C21.6125 20.6375 20.6375 21.6125 19.5813 22.3438Z" fill="white"/>
</g>
<defs>
<clipPath id="clip0_1_2008">
<rect width="26" height="26" fill="white"/>
</clipPath>
</defs>
</svg>
