<svg xmlns="http://www.w3.org/2000/svg" viewBox="0 0 367.82 113.39">
    <defs>
        <style>.cls-1{fill:#00a188;}.cls-2{fill:#fff;}</style>
    </defs>
    <g id="Layer_2" data-name="Layer 2">
        <g id="Layer_1-2" data-name="Layer 1">
            <rect class="cls-1" width="367.82" height="113.39"/>
            <path class="cls-2"
                  d="M90.64,33c-7.72-4.45-15.06-5.5-22.79-5.5-24.5,0-34.32,17.29-34.32,34.59,0,16.24,10.35,23.84,25,23.84A51.35,51.35,0,0,0,81.74,80.8l-2.62,19.65c-5.9,2-16.12,3.53-24.37,3.53C25.28,104,8.38,86.56,8.38,61.41c0-30.39,21.35-52,55.67-52,17.56,0,27.38,3,32.36,4.85Z"/>
            <path class="cls-2"
                  d="M137.54,11H168.2l14.93,91.43H158.5L156,82.89h-35.5l-10.87,19.52H83.18Zm12.19,18.86h-.27L130.08,65.6h23.58Z"/>
            <path class="cls-2"
                  d="M208.55,11h29.21c17.42.13,38.38.65,38.38,23.31,0,16.12-12.58,21.75-26.59,23.45V58c7.2.66,9.56,10.35,10.87,16.25L267,102.41H242.61l-4.72-23.32c-2.36-11.92-3.15-12.83-14.15-12.83h-2.62l-7.33,36.15h-24.5Zm16.11,38h8.25c10.61,0,18.86-2.62,18.86-11.27,0-6.55-3.93-9.3-11.26-9.43H228.85Z"/>
            <path class="cls-2"
                  d="M293.82,11h64.32l-3.53,17.29H314.39L310.2,47.13h38.12l-3.8,17.29h-38l-4.45,20.7h41.79l-3.54,17.29H274.18Z"/>
        </g>
    </g>
</svg>