<svg width="800" height="275" viewBox="0 0 800 275" fill="none" xmlns="http://www.w3.org/2000/svg">
<rect width="800" height="275" fill="#CCEFE9"/>
<path d="M0 1H800V95.0952L0 173V1Z" fill="#00A188" fill-opacity="0.6"/>
<line x1="85.4606" y1="216.527" x2="704.461" y2="155.527" stroke="#231F20" stroke-width="11"/>
<line x1="390.177" y1="181.28" x2="604.177" y2="53.2799" stroke="#231F20" stroke-width="11"/>
<circle cx="93" cy="215" r="29" fill="#231F20"/>
<path d="M107.52 228H101.32L98.92 221.6H87.6L85.16 228H79.36L90.24 200.08H96.56L107.52 228ZM97.36 217.2L93.32 205.68H93.24L89.2 217.2H97.36Z" fill="white"/>
<circle cx="388" cy="186" r="29" fill="#231F20"/>
<path d="M389.88 199H380.24V171.08H390C395.68 171.08 399 173.52 399 178.2C399 181.44 396.92 183.84 393.44 184.48V184.56C397.32 184.92 399.84 187.56 399.84 190.92C399.84 196.4 395.92 199 389.88 199ZM385.84 182.36H388.04C391.72 182.36 393.4 181.16 393.4 178.96C393.4 176.84 392.28 175.48 388.4 175.48H385.84V182.36ZM385.84 194.6H388.52C392.16 194.6 394.24 193.32 394.24 190.72C394.24 187.8 392.36 186.52 388.64 186.52H385.84V194.6Z" fill="white"/>
<circle cx="705" cy="157" r="29" fill="#231F20"/>
<path d="M702 171H694.24V143.08H701.96C712.48 143.08 718 147.6 718 157.04C718 166.44 712.52 171 702 171ZM699.84 166.6H703C707.68 166.6 712.16 163.08 712.16 157.04C712.16 151.4 708.12 147.48 702.84 147.48H699.84V166.6Z" fill="white"/>
<circle cx="600" cy="58" r="29" fill="#231F20"/>
<path d="M609.32 66.92L609.56 71.6C607.48 72.08 605.32 72.48 603.2 72.48C593.64 72.48 587.88 67.52 587.88 58.52C587.88 49.08 593.6 43.6 603.2 43.6C605.12 43.6 607.6 44 609.52 44.76L609.12 49.48C607.08 48.32 605.16 48 603.08 48C597.44 48 593.72 52.28 593.72 58.12C593.72 64 597.4 68.08 603.2 68.08C605.16 68.08 607.84 67.68 609.32 66.92Z" fill="white"/>
</svg>
