<svg width="800" height="399" viewBox="0 0 800 399" fill="none" xmlns="http://www.w3.org/2000/svg">
<rect width="800" height="399" fill="#CCEFE9"/>
<rect width="800" height="149" fill="#00A188"/>
<line x1="77.1294" y1="295.569" x2="707.129" y2="194.569" stroke="#231F20" stroke-width="11"/>
<line x1="413.473" y1="246.78" x2="632.473" y2="63.7795" stroke="#231F20" stroke-width="11"/>
<circle cx="78" cy="297" r="29" fill="#231F20"/>
<circle cx="417" cy="239" r="29" fill="#231F20"/>
<circle cx="708" cy="197" r="29" fill="#231F20"/>
<path d="M92.52 310H86.32L83.92 303.6H72.6L70.16 310H64.36L75.24 282.08H81.56L92.52 310ZM82.36 299.2L78.32 287.68H78.24L74.2 299.2H82.36Z" fill="white"/>
<path d="M63.415 351H56.377V339.134H63.381V341.004H58.757V343.928H62.99V345.798H58.757V349.13H63.415V351ZM73.6603 351H71.3823V346.087C71.3823 344.778 71.1103 343.809 69.9033 343.809C68.4583 343.809 67.8973 345.203 67.8973 346.75V351H65.6193V342.245H67.7783V343.435H67.8123C68.5093 342.449 69.4783 342.041 70.6853 342.041C72.6913 342.041 73.6603 343.418 73.6603 345.475V351ZM81.1459 349.198L81.2139 351C80.7379 351.136 80.2109 351.204 79.5479 351.204C77.6949 351.204 76.7599 350.048 76.7599 348.365V343.911H75.0769V342.245H76.7599V340.494L79.0379 339.763V342.245H81.0609V343.911H79.0379V347.974C79.0379 348.892 79.3269 349.436 80.1259 349.436C80.5169 349.436 80.9079 349.351 81.1459 349.198ZM84.9483 351H82.6703V342.245H84.6933V344.234H84.7273C84.8633 343.316 85.8153 342.041 87.1413 342.041C87.6173 342.041 87.7533 342.092 87.8213 342.109V344.404C87.6173 344.285 87.2093 344.217 86.8013 344.217C85.9513 344.217 84.9483 344.676 84.9483 347.396V351ZM88.7847 354.536L88.9377 352.853C89.2777 352.972 89.6347 353.006 90.0937 353.006C91.0627 353.006 91.5897 352.343 91.5897 351.442L88.2407 342.245H90.7567L92.8647 348.637H92.8987L95.0067 342.245H97.3187L93.6467 351.969C92.9837 353.703 92.2357 354.774 90.3657 354.774C89.8557 354.774 89.3117 354.689 88.7847 354.536ZM102.566 347.362H98.095V345.492H102.566V347.362ZM106.663 351H104.385V338.25H106.663V351ZM116.087 348.654V350.507C115.254 350.966 114.302 351.204 113.095 351.204C110.188 351.204 108.505 349.538 108.505 346.665C108.505 344.217 109.78 342.041 112.568 342.041C115.543 342.041 116.733 343.877 116.733 347.328H110.681C110.783 348.705 111.718 349.538 113.197 349.538C114.285 349.538 115.237 349.13 116.087 348.654ZM110.681 345.764H114.557C114.472 344.506 113.877 343.707 112.687 343.707C111.548 343.707 110.8 344.455 110.681 345.764ZM123.357 351H120.79L117.543 342.245H119.991L122.167 348.62H122.201L124.309 342.245H126.587L123.357 351ZM134.979 348.654V350.507C134.146 350.966 133.194 351.204 131.987 351.204C129.08 351.204 127.397 349.538 127.397 346.665C127.397 344.217 128.672 342.041 131.46 342.041C134.435 342.041 135.625 343.877 135.625 347.328H129.573C129.675 348.705 130.61 349.538 132.089 349.538C133.177 349.538 134.129 349.13 134.979 348.654ZM129.573 345.764H133.449C133.364 344.506 132.769 343.707 131.579 343.707C130.44 343.707 129.692 344.455 129.573 345.764ZM139.733 351H137.455V338.25H139.733V351ZM58.502 375H56.224V366.245H58.247V368.234H58.281C58.417 367.316 59.369 366.041 60.695 366.041C61.171 366.041 61.307 366.092 61.375 366.109V368.404C61.171 368.285 60.763 368.217 60.355 368.217C59.505 368.217 58.502 368.676 58.502 371.396V375ZM71.0836 370.682C71.0836 373.283 69.3156 375.204 66.4936 375.204C63.6716 375.204 61.9206 373.266 61.9206 370.682C61.9206 367.877 63.8246 366.041 66.4936 366.041C69.1626 366.041 71.0836 367.86 71.0836 370.682ZM66.4936 373.436C67.9726 373.436 68.7036 372.297 68.7036 370.41C68.7036 369.016 67.9556 367.809 66.4936 367.809C65.0656 367.809 64.3006 369.033 64.3006 370.41C64.3006 372.263 65.0146 373.436 66.4936 373.436ZM75.2032 375H72.9252V362.25H75.2032V375ZM84.6266 372.654V374.507C83.7936 374.966 82.8416 375.204 81.6346 375.204C78.7276 375.204 77.0446 373.538 77.0446 370.665C77.0446 368.217 78.3196 366.041 81.1076 366.041C84.0826 366.041 85.2726 367.877 85.2726 371.328H79.2206C79.3226 372.705 80.2576 373.538 81.7366 373.538C82.8246 373.538 83.7766 373.13 84.6266 372.654ZM79.2206 369.764H83.0966C83.0116 368.506 82.4166 367.707 81.2266 367.707C80.0876 367.707 79.3396 368.455 79.2206 369.764ZM86.5759 374.83L86.7119 372.96C87.4259 373.317 88.1739 373.538 88.9559 373.538C89.5679 373.538 90.4519 373.3 90.4519 372.467C90.4519 371.736 89.7379 371.515 88.8199 371.26C87.2899 370.852 86.4909 370.223 86.4909 368.761C86.4909 366.993 87.9699 366.041 89.9419 366.041C90.6389 366.041 91.3189 366.109 92.4069 366.364L92.2539 368.081C91.4719 367.809 90.9449 367.707 90.2309 367.707C89.4319 367.707 88.8709 368.03 88.8709 368.676C88.8709 369.169 89.3469 369.407 90.3839 369.696C92.0159 370.155 92.8319 370.886 92.8319 372.348C92.8319 374.269 91.1829 375.204 89.1429 375.204C88.3099 375.204 87.4089 375.051 86.5759 374.83Z" fill="#231F20"/>
<path d="M400.911 289.841L401.013 291.83C400.129 292.034 399.211 292.204 398.31 292.204C394.247 292.204 391.799 290.096 391.799 286.271C391.799 282.259 394.23 279.93 398.31 279.93C399.126 279.93 400.18 280.1 400.996 280.423L400.826 282.429C399.959 281.936 399.143 281.8 398.259 281.8C395.862 281.8 394.281 283.619 394.281 286.101C394.281 288.6 395.845 290.334 398.31 290.334C399.143 290.334 400.282 290.164 400.911 289.841ZM409.91 292H407.904C407.836 291.677 407.819 291.082 407.802 290.691H407.768C407.258 291.626 406.153 292.204 405.065 292.204C403.484 292.204 402.005 291.252 402.005 289.586C402.005 288.073 402.872 286.594 406.289 286.594H407.7V286.56C407.7 285.098 406.952 284.707 405.728 284.707C404.759 284.707 403.79 285.081 403.025 285.659L402.957 283.704C403.773 283.33 404.946 283.041 406 283.041C408.618 283.041 409.774 284.095 409.774 286.73V288.532C409.774 288.991 409.808 290.827 409.91 292ZM407.7 288.056V287.954H406.697C405.082 287.954 404.181 288.43 404.181 289.467C404.181 290.147 404.708 290.538 405.626 290.538C406.646 290.538 407.7 289.841 407.7 288.056ZM414.341 292H412.063V283.245H414.086V285.234H414.12C414.256 284.316 415.208 283.041 416.534 283.041C417.01 283.041 417.146 283.092 417.214 283.109V285.404C417.01 285.285 416.602 285.217 416.194 285.217C415.344 285.217 414.341 285.676 414.341 288.396V292ZM425.341 289.654V291.507C424.508 291.966 423.556 292.204 422.349 292.204C419.442 292.204 417.759 290.538 417.759 287.665C417.759 285.217 419.034 283.041 421.822 283.041C424.797 283.041 425.987 284.877 425.987 288.328H419.935C420.037 289.705 420.972 290.538 422.451 290.538C423.539 290.538 424.491 290.13 425.341 289.654ZM419.935 286.764H423.811C423.726 285.506 423.131 284.707 421.941 284.707C420.802 284.707 420.054 285.455 419.935 286.764ZM441.1 287.682C441.1 290.283 439.332 292.204 436.51 292.204C433.688 292.204 431.937 290.266 431.937 287.682C431.937 284.877 433.841 283.041 436.51 283.041C439.179 283.041 441.1 284.86 441.1 287.682ZM436.51 290.436C437.989 290.436 438.72 289.297 438.72 287.41C438.72 286.016 437.972 284.809 436.51 284.809C435.082 284.809 434.317 286.033 434.317 287.41C434.317 289.263 435.031 290.436 436.51 290.436ZM445.22 292H442.942V283.245H444.965V285.234H444.999C445.135 284.316 446.087 283.041 447.413 283.041C447.889 283.041 448.025 283.092 448.093 283.109V285.404C447.889 285.285 447.481 285.217 447.073 285.217C446.223 285.217 445.22 285.676 445.22 288.396V292ZM453.754 291.83L453.89 289.96C454.604 290.317 455.352 290.538 456.134 290.538C456.746 290.538 457.63 290.3 457.63 289.467C457.63 288.736 456.916 288.515 455.998 288.26C454.468 287.852 453.669 287.223 453.669 285.761C453.669 283.993 455.148 283.041 457.12 283.041C457.817 283.041 458.497 283.109 459.585 283.364L459.432 285.081C458.65 284.809 458.123 284.707 457.409 284.707C456.61 284.707 456.049 285.03 456.049 285.676C456.049 286.169 456.525 286.407 457.562 286.696C459.194 287.155 460.01 287.886 460.01 289.348C460.01 291.269 458.361 292.204 456.321 292.204C455.488 292.204 454.587 292.051 453.754 291.83ZM469.824 292H467.665V290.81H467.631C466.883 291.711 465.897 292.204 464.758 292.204C462.803 292.204 461.783 290.895 461.783 288.77V283.245H464.061V288.243C464.061 289.994 464.707 290.436 465.54 290.436C466.917 290.436 467.546 289.161 467.546 287.478V283.245H469.824V292ZM474.454 295.57H472.176V283.245H474.352V284.486H474.386C474.964 283.534 475.882 283.041 477.106 283.041C479.656 283.041 480.778 284.996 480.778 287.597C480.778 290.164 479.673 292.204 477.055 292.204C475.882 292.204 475.185 291.83 474.488 290.997H474.454V295.57ZM476.477 290.436C477.956 290.436 478.398 288.838 478.398 287.597C478.398 286.39 477.973 284.809 476.511 284.809C475.032 284.809 474.471 286.39 474.471 287.597C474.471 288.889 474.998 290.436 476.477 290.436ZM484.847 295.57H482.569V283.245H484.745V284.486H484.779C485.357 283.534 486.275 283.041 487.499 283.041C490.049 283.041 491.171 284.996 491.171 287.597C491.171 290.164 490.066 292.204 487.448 292.204C486.275 292.204 485.578 291.83 484.881 290.997H484.847V295.57ZM486.87 290.436C488.349 290.436 488.791 288.838 488.791 287.597C488.791 286.39 488.366 284.809 486.904 284.809C485.425 284.809 484.864 286.39 484.864 287.597C484.864 288.889 485.391 290.436 486.87 290.436ZM501.563 287.682C501.563 290.283 499.795 292.204 496.973 292.204C494.151 292.204 492.4 290.266 492.4 287.682C492.4 284.877 494.304 283.041 496.973 283.041C499.642 283.041 501.563 284.86 501.563 287.682ZM496.973 290.436C498.452 290.436 499.183 289.297 499.183 287.41C499.183 286.016 498.435 284.809 496.973 284.809C495.545 284.809 494.78 286.033 494.78 287.41C494.78 289.263 495.494 290.436 496.973 290.436ZM505.683 292H503.405V283.245H505.428V285.234H505.462C505.598 284.316 506.55 283.041 507.876 283.041C508.352 283.041 508.488 283.092 508.556 283.109V285.404C508.352 285.285 507.944 285.217 507.536 285.217C506.686 285.217 505.683 285.676 505.683 288.396V292ZM515.095 290.198L515.163 292C514.687 292.136 514.16 292.204 513.497 292.204C511.644 292.204 510.709 291.048 510.709 289.365V284.911H509.026V283.245H510.709V281.494L512.987 280.763V283.245H515.01V284.911H512.987V288.974C512.987 289.892 513.276 290.436 514.075 290.436C514.466 290.436 514.857 290.351 515.095 290.198ZM403.24 316H400.554L398.65 309.319H398.616L396.746 316H394.145L391.187 307.245H393.601L395.539 313.722H395.573L397.341 307.245H399.993L401.897 313.722H401.931L403.75 307.245H405.926L403.24 316ZM415.882 311.682C415.882 314.283 414.114 316.204 411.292 316.204C408.47 316.204 406.719 314.266 406.719 311.682C406.719 308.877 408.623 307.041 411.292 307.041C413.961 307.041 415.882 308.86 415.882 311.682ZM411.292 314.436C412.771 314.436 413.502 313.297 413.502 311.41C413.502 310.016 412.754 308.809 411.292 308.809C409.864 308.809 409.099 310.033 409.099 311.41C409.099 313.263 409.813 314.436 411.292 314.436ZM420.002 316H417.724V307.245H419.747V309.234H419.781C419.917 308.316 420.869 307.041 422.195 307.041C422.671 307.041 422.807 307.092 422.875 307.109V309.404C422.671 309.285 422.263 309.217 421.855 309.217C421.005 309.217 420.002 309.676 420.002 312.396V316ZM432.457 316H429.567L426.643 311.75H426.609V316H424.331V303.25H426.609V310.747H426.643L429.363 307.245H432.049L428.785 311.155L432.457 316ZM440.748 313.654V315.507C439.915 315.966 438.963 316.204 437.756 316.204C434.849 316.204 433.166 314.538 433.166 311.665C433.166 309.217 434.441 307.041 437.229 307.041C440.204 307.041 441.394 308.877 441.394 312.328H435.342C435.444 313.705 436.379 314.538 437.858 314.538C438.946 314.538 439.898 314.13 440.748 313.654ZM435.342 310.764H439.218C439.133 309.506 438.538 308.707 437.348 308.707C436.209 308.707 435.461 309.455 435.342 310.764ZM445.502 316H443.224V307.245H445.247V309.234H445.281C445.417 308.316 446.369 307.041 447.695 307.041C448.171 307.041 448.307 307.092 448.375 307.109V309.404C448.171 309.285 447.763 309.217 447.355 309.217C446.505 309.217 445.502 309.676 445.502 312.396V316ZM449.304 315.83L449.44 313.96C450.154 314.317 450.902 314.538 451.684 314.538C452.296 314.538 453.18 314.3 453.18 313.467C453.18 312.736 452.466 312.515 451.548 312.26C450.018 311.852 449.219 311.223 449.219 309.761C449.219 307.993 450.698 307.041 452.67 307.041C453.367 307.041 454.047 307.109 455.135 307.364L454.982 309.081C454.2 308.809 453.673 308.707 452.959 308.707C452.16 308.707 451.599 309.03 451.599 309.676C451.599 310.169 452.075 310.407 453.112 310.696C454.744 311.155 455.56 311.886 455.56 313.348C455.56 315.269 453.911 316.204 451.871 316.204C451.038 316.204 450.137 316.051 449.304 315.83Z" fill="#231F20"/>
<path d="M687.553 252H685.173V240.134H688.233C691.378 240.134 693.129 241.307 693.129 243.721C693.129 246.203 691.463 247.495 688.59 247.495H687.553V252ZM687.553 245.625H688.352C689.967 245.625 690.647 244.962 690.647 243.857C690.647 242.616 689.797 242.004 688.386 242.004H687.553V245.625ZM696.948 252H694.67V243.245H696.693V245.234H696.727C696.863 244.316 697.815 243.041 699.141 243.041C699.617 243.041 699.753 243.092 699.821 243.109V245.404C699.617 245.285 699.209 245.217 698.801 245.217C697.951 245.217 696.948 245.676 696.948 248.396V252ZM708.571 252H706.565C706.497 251.677 706.48 251.082 706.463 250.691H706.429C705.919 251.626 704.814 252.204 703.726 252.204C702.145 252.204 700.666 251.252 700.666 249.586C700.666 248.073 701.533 246.594 704.95 246.594H706.361V246.56C706.361 245.098 705.613 244.707 704.389 244.707C703.42 244.707 702.451 245.081 701.686 245.659L701.618 243.704C702.434 243.33 703.607 243.041 704.661 243.041C707.279 243.041 708.435 244.095 708.435 246.73V248.532C708.435 248.991 708.469 250.827 708.571 252ZM706.361 248.056V247.954H705.358C703.743 247.954 702.842 248.43 702.842 249.467C702.842 250.147 703.369 250.538 704.287 250.538C705.307 250.538 706.361 249.841 706.361 248.056ZM716.606 250.028L716.708 251.915C716.028 252.119 715.382 252.204 714.447 252.204C711.71 252.204 710.112 250.436 710.112 247.58C710.112 244.962 711.676 243.041 714.362 243.041C715.246 243.041 715.926 243.143 716.555 243.33L716.351 245.132C715.909 244.928 715.45 244.809 714.821 244.809C713.393 244.809 712.492 245.931 712.492 247.58C712.492 249.28 713.325 250.436 714.855 250.436C715.348 250.436 716.011 250.283 716.606 250.028ZM723.361 250.198L723.429 252C722.953 252.136 722.426 252.204 721.763 252.204C719.91 252.204 718.975 251.048 718.975 249.365V244.911H717.292V243.245H718.975V241.494L721.253 240.763V243.245H723.276V244.911H721.253V248.974C721.253 249.892 721.542 250.436 722.341 250.436C722.732 250.436 723.123 250.351 723.361 250.198ZM727.163 241.647H724.885V239.471H727.163V241.647ZM727.163 252H724.885V243.245H727.163V252ZM735.499 250.028L735.601 251.915C734.921 252.119 734.275 252.204 733.34 252.204C730.603 252.204 729.005 250.436 729.005 247.58C729.005 244.962 730.569 243.041 733.255 243.041C734.139 243.041 734.819 243.143 735.448 243.33L735.244 245.132C734.802 244.928 734.343 244.809 733.714 244.809C732.286 244.809 731.385 245.931 731.385 247.58C731.385 249.28 732.218 250.436 733.748 250.436C734.241 250.436 734.904 250.283 735.499 250.028ZM744.14 249.654V251.507C743.307 251.966 742.355 252.204 741.148 252.204C738.241 252.204 736.558 250.538 736.558 247.665C736.558 245.217 737.833 243.041 740.621 243.041C743.596 243.041 744.786 244.877 744.786 248.328H738.734C738.836 249.705 739.771 250.538 741.25 250.538C742.338 250.538 743.29 250.13 744.14 249.654ZM738.734 246.764H742.61C742.525 245.506 741.93 244.707 740.74 244.707C739.601 244.707 738.853 245.455 738.734 246.764ZM692.364 276H685.377V264.134H687.757V274.13H692.364V276ZM700.694 273.654V275.507C699.861 275.966 698.909 276.204 697.702 276.204C694.795 276.204 693.112 274.538 693.112 271.665C693.112 269.217 694.387 267.041 697.175 267.041C700.15 267.041 701.34 268.877 701.34 272.328H695.288C695.39 273.705 696.325 274.538 697.804 274.538C698.892 274.538 699.844 274.13 700.694 273.654ZM695.288 270.764H699.164C699.079 269.506 698.484 268.707 697.294 268.707C696.155 268.707 695.407 269.455 695.288 270.764ZM710.463 276H708.457C708.389 275.677 708.372 275.082 708.355 274.691H708.321C707.811 275.626 706.706 276.204 705.618 276.204C704.037 276.204 702.558 275.252 702.558 273.586C702.558 272.073 703.425 270.594 706.842 270.594H708.253V270.56C708.253 269.098 707.505 268.707 706.281 268.707C705.312 268.707 704.343 269.081 703.578 269.659L703.51 267.704C704.326 267.33 705.499 267.041 706.553 267.041C709.171 267.041 710.327 268.095 710.327 270.73V272.532C710.327 272.991 710.361 274.827 710.463 276ZM708.253 272.056V271.954H707.25C705.635 271.954 704.734 272.43 704.734 273.467C704.734 274.147 705.261 274.538 706.179 274.538C707.199 274.538 708.253 273.841 708.253 272.056ZM720.607 276H718.397V275.014H718.363C717.683 275.864 716.748 276.204 715.677 276.204C713.008 276.204 712.005 274.028 712.005 271.597C712.005 268.945 713.161 267.041 715.677 267.041C716.816 267.041 717.615 267.432 718.295 268.265H718.329V263.25H720.607V276ZM716.306 274.436C717.802 274.436 718.312 272.872 718.312 271.597C718.312 270.373 717.734 268.809 716.272 268.809C714.895 268.809 714.385 270.237 714.385 271.597C714.385 272.838 714.827 274.436 716.306 274.436ZM729.979 273.654V275.507C729.146 275.966 728.194 276.204 726.987 276.204C724.08 276.204 722.397 274.538 722.397 271.665C722.397 269.217 723.672 267.041 726.46 267.041C729.435 267.041 730.625 268.877 730.625 272.328H724.573C724.675 273.705 725.61 274.538 727.089 274.538C728.177 274.538 729.129 274.13 729.979 273.654ZM724.573 270.764H728.449C728.364 269.506 727.769 268.707 726.579 268.707C725.44 268.707 724.692 269.455 724.573 270.764ZM734.733 276H732.455V267.245H734.478V269.234H734.512C734.648 268.316 735.6 267.041 736.926 267.041C737.402 267.041 737.538 267.092 737.606 267.109V269.404C737.402 269.285 736.994 269.217 736.586 269.217C735.736 269.217 734.733 269.676 734.733 272.396V276ZM738.536 275.83L738.672 273.96C739.386 274.317 740.134 274.538 740.916 274.538C741.528 274.538 742.412 274.3 742.412 273.467C742.412 272.736 741.698 272.515 740.78 272.26C739.25 271.852 738.451 271.223 738.451 269.761C738.451 267.993 739.93 267.041 741.902 267.041C742.599 267.041 743.279 267.109 744.367 267.364L744.214 269.081C743.432 268.809 742.905 268.707 742.191 268.707C741.392 268.707 740.831 269.03 740.831 269.676C740.831 270.169 741.307 270.407 742.344 270.696C743.976 271.155 744.792 271.886 744.792 273.348C744.792 275.269 743.143 276.204 741.103 276.204C740.27 276.204 739.369 276.051 738.536 275.83Z" fill="#231F20"/>
<path d="M630.173 97.745L630.394 95.603C631.244 96.062 632.179 96.334 633.08 96.334C633.947 96.334 635.188 95.892 635.188 94.804C635.188 93.903 634.389 93.512 633.216 93.053C631.635 92.441 629.986 91.778 629.986 89.551C629.986 87.001 631.907 85.93 634.151 85.93C635.154 85.93 636.106 86.066 636.973 86.355L636.752 88.31C635.953 87.97 635.137 87.8 634.338 87.8C633.454 87.8 632.468 88.208 632.468 89.449C632.468 90.35 633.488 90.69 634.474 91.081C636.072 91.676 637.67 92.407 637.67 94.617C637.67 96.912 636.038 98.204 633.199 98.204C631.975 98.204 631.312 98.034 630.173 97.745ZM647.66 98H645.501V96.81H645.467C644.719 97.711 643.733 98.204 642.594 98.204C640.639 98.204 639.619 96.895 639.619 94.77V89.245H641.897V94.243C641.897 95.994 642.543 96.436 643.376 96.436C644.753 96.436 645.382 95.161 645.382 93.478V89.245H647.66V98ZM652.29 101.57H650.012V89.245H652.188V90.486H652.222C652.8 89.534 653.718 89.041 654.942 89.041C657.492 89.041 658.614 90.996 658.614 93.597C658.614 96.164 657.509 98.204 654.891 98.204C653.718 98.204 653.021 97.83 652.324 96.997H652.29V101.57ZM654.313 96.436C655.792 96.436 656.234 94.838 656.234 93.597C656.234 92.39 655.809 90.809 654.347 90.809C652.868 90.809 652.307 92.39 652.307 93.597C652.307 94.889 652.834 96.436 654.313 96.436ZM667.425 95.654V97.507C666.592 97.966 665.64 98.204 664.433 98.204C661.526 98.204 659.843 96.538 659.843 93.665C659.843 91.217 661.118 89.041 663.906 89.041C666.881 89.041 668.071 90.877 668.071 94.328H662.019C662.121 95.705 663.056 96.538 664.535 96.538C665.623 96.538 666.575 96.13 667.425 95.654ZM662.019 92.764H665.895C665.81 91.506 665.215 90.707 664.025 90.707C662.886 90.707 662.138 91.455 662.019 92.764ZM672.18 98H669.902V89.245H671.925V91.234H671.959C672.095 90.316 673.047 89.041 674.373 89.041C674.849 89.041 674.985 89.092 675.053 89.109V91.404C674.849 91.285 674.441 91.217 674.033 91.217C673.183 91.217 672.18 91.676 672.18 94.396V98ZM681.303 98H678.736L675.489 89.245H677.937L680.113 95.62H680.147L682.255 89.245H684.533L681.303 98ZM688.233 87.647H685.955V85.471H688.233V87.647ZM688.233 98H685.955V89.245H688.233V98ZM690.16 97.83L690.296 95.96C691.01 96.317 691.758 96.538 692.54 96.538C693.152 96.538 694.036 96.3 694.036 95.467C694.036 94.736 693.322 94.515 692.404 94.26C690.874 93.852 690.075 93.223 690.075 91.761C690.075 89.993 691.554 89.041 693.526 89.041C694.223 89.041 694.903 89.109 695.991 89.364L695.838 91.081C695.056 90.809 694.529 90.707 693.815 90.707C693.016 90.707 692.455 91.03 692.455 91.676C692.455 92.169 692.931 92.407 693.968 92.696C695.6 93.155 696.416 93.886 696.416 95.348C696.416 97.269 694.767 98.204 692.727 98.204C691.894 98.204 690.993 98.051 690.16 97.83ZM706.792 93.682C706.792 96.283 705.024 98.204 702.202 98.204C699.38 98.204 697.629 96.266 697.629 93.682C697.629 90.877 699.533 89.041 702.202 89.041C704.871 89.041 706.792 90.86 706.792 93.682ZM702.202 96.436C703.681 96.436 704.412 95.297 704.412 93.41C704.412 92.016 703.664 90.809 702.202 90.809C700.774 90.809 700.009 92.033 700.009 93.41C700.009 95.263 700.723 96.436 702.202 96.436ZM710.911 98H708.633V89.245H710.656V91.234H710.69C710.826 90.316 711.778 89.041 713.104 89.041C713.58 89.041 713.716 89.092 713.784 89.109V91.404C713.58 91.285 713.172 91.217 712.764 91.217C711.914 91.217 710.911 91.676 710.911 94.396V98ZM714.714 97.83L714.85 95.96C715.564 96.317 716.312 96.538 717.094 96.538C717.706 96.538 718.59 96.3 718.59 95.467C718.59 94.736 717.876 94.515 716.958 94.26C715.428 93.852 714.629 93.223 714.629 91.761C714.629 89.993 716.108 89.041 718.08 89.041C718.777 89.041 719.457 89.109 720.545 89.364L720.392 91.081C719.61 90.809 719.083 90.707 718.369 90.707C717.57 90.707 717.009 91.03 717.009 91.676C717.009 92.169 717.485 92.407 718.522 92.696C720.154 93.155 720.97 93.886 720.97 95.348C720.97 97.269 719.321 98.204 717.281 98.204C716.448 98.204 715.547 98.051 714.714 97.83ZM638.775 117.682C638.775 120.283 637.007 122.204 634.185 122.204C631.363 122.204 629.612 120.266 629.612 117.682C629.612 114.877 631.516 113.041 634.185 113.041C636.854 113.041 638.775 114.86 638.775 117.682ZM634.185 120.436C635.664 120.436 636.395 119.297 636.395 117.41C636.395 116.016 635.647 114.809 634.185 114.809C632.757 114.809 631.992 116.033 631.992 117.41C631.992 119.263 632.706 120.436 634.185 120.436ZM642.895 122H640.617V113.245H642.64V115.234H642.674C642.81 114.316 643.762 113.041 645.088 113.041C645.564 113.041 645.7 113.092 645.768 113.109V115.404C645.564 115.285 645.156 115.217 644.748 115.217C643.898 115.217 642.895 115.676 642.895 118.396V122ZM654.233 122H651.955V109.25H654.233V122ZM663.657 119.654V121.507C662.824 121.966 661.872 122.204 660.665 122.204C657.758 122.204 656.075 120.538 656.075 117.665C656.075 115.217 657.35 113.041 660.138 113.041C663.113 113.041 664.303 114.877 664.303 118.328H658.251C658.353 119.705 659.288 120.538 660.767 120.538C661.855 120.538 662.807 120.13 663.657 119.654ZM658.251 116.764H662.127C662.042 115.506 661.447 114.707 660.257 114.707C659.118 114.707 658.37 115.455 658.251 116.764ZM673.426 122H671.42C671.352 121.677 671.335 121.082 671.318 120.691H671.284C670.774 121.626 669.669 122.204 668.581 122.204C667 122.204 665.521 121.252 665.521 119.586C665.521 118.073 666.388 116.594 669.805 116.594H671.216V116.56C671.216 115.098 670.468 114.707 669.244 114.707C668.275 114.707 667.306 115.081 666.541 115.659L666.473 113.704C667.289 113.33 668.462 113.041 669.516 113.041C672.134 113.041 673.29 114.095 673.29 116.73V118.532C673.29 118.991 673.324 120.827 673.426 122ZM671.216 118.056V117.954H670.213C668.598 117.954 667.697 118.43 667.697 119.467C667.697 120.147 668.224 120.538 669.142 120.538C670.162 120.538 671.216 119.841 671.216 118.056ZM683.569 122H681.359V121.014H681.325C680.645 121.864 679.71 122.204 678.639 122.204C675.97 122.204 674.967 120.028 674.967 117.597C674.967 114.945 676.123 113.041 678.639 113.041C679.778 113.041 680.577 113.432 681.257 114.265H681.291V109.25H683.569V122ZM679.268 120.436C680.764 120.436 681.274 118.872 681.274 117.597C681.274 116.373 680.696 114.809 679.234 114.809C677.857 114.809 677.347 116.237 677.347 117.597C677.347 118.838 677.789 120.436 679.268 120.436ZM692.942 119.654V121.507C692.109 121.966 691.157 122.204 689.95 122.204C687.043 122.204 685.36 120.538 685.36 117.665C685.36 115.217 686.635 113.041 689.423 113.041C692.398 113.041 693.588 114.877 693.588 118.328H687.536C687.638 119.705 688.573 120.538 690.052 120.538C691.14 120.538 692.092 120.13 692.942 119.654ZM687.536 116.764H691.412C691.327 115.506 690.732 114.707 689.542 114.707C688.403 114.707 687.655 115.455 687.536 116.764ZM697.696 122H695.418V113.245H697.441V115.234H697.475C697.611 114.316 698.563 113.041 699.889 113.041C700.365 113.041 700.501 113.092 700.569 113.109V115.404C700.365 115.285 699.957 115.217 699.549 115.217C698.699 115.217 697.696 115.676 697.696 118.396V122ZM701.499 121.83L701.635 119.96C702.349 120.317 703.097 120.538 703.879 120.538C704.491 120.538 705.375 120.3 705.375 119.467C705.375 118.736 704.661 118.515 703.743 118.26C702.213 117.852 701.414 117.223 701.414 115.761C701.414 113.993 702.893 113.041 704.865 113.041C705.562 113.041 706.242 113.109 707.33 113.364L707.177 115.081C706.395 114.809 705.868 114.707 705.154 114.707C704.355 114.707 703.794 115.03 703.794 115.676C703.794 116.169 704.27 116.407 705.307 116.696C706.939 117.155 707.755 117.886 707.755 119.348C707.755 121.269 706.106 122.204 704.066 122.204C703.233 122.204 702.332 122.051 701.499 121.83Z" fill="white"/>
<!--<path d="M25.775 192H21.701V177.342H25.754C31.277 177.342 34.175 179.715 34.175 184.671C34.175 189.606 31.298 192 25.775 192ZM24.641 189.69H26.3C28.757 189.69 31.109 187.842 31.109 184.671C31.109 181.71 28.988 179.652 26.216 179.652H24.641V189.69ZM39.4813 179.211H36.6673V176.523H39.4813V179.211ZM39.4813 192H36.6673V181.185H39.4813V192ZM45.326 192H42.512V181.185H45.011V183.642H45.053C45.221 182.508 46.397 180.933 48.035 180.933C48.623 180.933 48.791 180.996 48.875 181.017V183.852C48.623 183.705 48.119 183.621 47.615 183.621C46.565 183.621 45.326 184.188 45.326 187.548V192ZM58.915 189.102V191.391C57.886 191.958 56.71 192.252 55.219 192.252C51.628 192.252 49.549 190.194 49.549 186.645C49.549 183.621 51.124 180.933 54.568 180.933C58.243 180.933 59.713 183.201 59.713 187.464H52.237C52.363 189.165 53.518 190.194 55.345 190.194C56.689 190.194 57.865 189.69 58.915 189.102ZM52.237 185.532H57.025C56.92 183.978 56.185 182.991 54.715 182.991C53.308 182.991 52.384 183.915 52.237 185.532ZM69.2399 189.564L69.3659 191.895C68.5259 192.147 67.7279 192.252 66.5729 192.252C63.1919 192.252 61.2179 190.068 61.2179 186.54C61.2179 183.306 63.1499 180.933 66.4679 180.933C67.5599 180.933 68.3999 181.059 69.1769 181.29L68.9249 183.516C68.3789 183.264 67.8119 183.117 67.0349 183.117C65.2709 183.117 64.1579 184.503 64.1579 186.54C64.1579 188.64 65.1869 190.068 67.0769 190.068C67.6859 190.068 68.5049 189.879 69.2399 189.564ZM77.584 189.774L77.668 192C77.08 192.168 76.429 192.252 75.61 192.252C73.321 192.252 72.166 190.824 72.166 188.745V183.243H70.087V181.185H72.166V179.022L74.98 178.119V181.185H77.479V183.243H74.98V188.262C74.98 189.396 75.337 190.068 76.324 190.068C76.807 190.068 77.29 189.963 77.584 189.774ZM96.0428 189.333L96.1688 191.79C95.0768 192.042 93.9428 192.252 92.8298 192.252C87.8108 192.252 84.7868 189.648 84.7868 184.923C84.7868 179.967 87.7898 177.09 92.8298 177.09C93.8378 177.09 95.1398 177.3 96.1478 177.699L95.9378 180.177C94.8668 179.568 93.8588 179.4 92.7668 179.4C89.8058 179.4 87.8528 181.647 87.8528 184.713C87.8528 187.8 89.7848 189.942 92.8298 189.942C93.8588 189.942 95.2658 189.732 96.0428 189.333ZM107.159 192H104.681C104.597 191.601 104.576 190.866 104.555 190.383H104.513C103.883 191.538 102.518 192.252 101.174 192.252C99.2207 192.252 97.3937 191.076 97.3937 189.018C97.3937 187.149 98.4647 185.322 102.686 185.322H104.429V185.28C104.429 183.474 103.505 182.991 101.993 182.991C100.796 182.991 99.5987 183.453 98.6537 184.167L98.5697 181.752C99.5777 181.29 101.027 180.933 102.329 180.933C105.563 180.933 106.991 182.235 106.991 185.49V187.716C106.991 188.283 107.033 190.551 107.159 192ZM104.429 187.128V187.002H103.19C101.195 187.002 100.082 187.59 100.082 188.871C100.082 189.711 100.733 190.194 101.867 190.194C103.127 190.194 104.429 189.333 104.429 187.128ZM112.633 192H109.819V181.185H112.318V183.642H112.36C112.528 182.508 113.704 180.933 115.342 180.933C115.93 180.933 116.098 180.996 116.182 181.017V183.852C115.93 183.705 115.426 183.621 114.922 183.621C113.872 183.621 112.633 184.188 112.633 187.548V192ZM126.222 189.102V191.391C125.193 191.958 124.017 192.252 122.526 192.252C118.935 192.252 116.856 190.194 116.856 186.645C116.856 183.621 118.431 180.933 121.875 180.933C125.55 180.933 127.02 183.201 127.02 187.464H119.544C119.67 189.165 120.825 190.194 122.652 190.194C123.996 190.194 125.172 189.69 126.222 189.102ZM119.544 185.532H124.332C124.227 183.978 123.492 182.991 122.022 182.991C120.615 182.991 119.691 183.915 119.544 185.532Z" fill="#231F20"/>-->
<!--<path d="M38.123 41H35.309V28.904H35.267L31.319 41H28.505L24.557 28.904L24.515 28.946V41H21.701V26.342H26.405L29.891 37.451H29.933L33.419 26.342H38.123V41ZM50.3521 41H47.8741C47.7901 40.601 47.7691 39.866 47.7481 39.383H47.7061C47.0761 40.538 45.7111 41.252 44.3671 41.252C42.4141 41.252 40.5871 40.076 40.5871 38.018C40.5871 36.149 41.6581 34.322 45.8791 34.322H47.6221V34.28C47.6221 32.474 46.6981 31.991 45.1861 31.991C43.9891 31.991 42.7921 32.453 41.8471 33.167L41.7631 30.752C42.7711 30.29 44.2201 29.933 45.5221 29.933C48.7561 29.933 50.1841 31.235 50.1841 34.49V36.716C50.1841 37.283 50.2261 39.551 50.3521 41ZM47.6221 36.128V36.002H46.3831C44.3881 36.002 43.2751 36.59 43.2751 37.871C43.2751 38.711 43.9261 39.194 45.0601 39.194C46.3201 39.194 47.6221 38.333 47.6221 36.128ZM62.882 41H60.068V34.931C60.068 33.314 59.732 32.117 58.241 32.117C56.456 32.117 55.763 33.839 55.763 35.75V41H52.949V30.185H55.616V31.655H55.658C56.519 30.437 57.716 29.933 59.207 29.933C61.685 29.933 62.882 31.634 62.882 34.175V41ZM74.8589 41H72.3809C72.2969 40.601 72.2759 39.866 72.2549 39.383H72.2129C71.5829 40.538 70.2179 41.252 68.8739 41.252C66.9209 41.252 65.0939 40.076 65.0939 38.018C65.0939 36.149 66.1649 34.322 70.3859 34.322H72.1289V34.28C72.1289 32.474 71.2049 31.991 69.6929 31.991C68.4959 31.991 67.2989 32.453 66.3539 33.167L66.2699 30.752C67.2779 30.29 68.7269 29.933 70.0289 29.933C73.2629 29.933 74.6909 31.235 74.6909 34.49V36.716C74.6909 37.283 74.7329 39.551 74.8589 41ZM72.1289 36.128V36.002H70.8899C68.8949 36.002 67.7819 36.59 67.7819 37.871C67.7819 38.711 68.4329 39.194 69.5669 39.194C70.8269 39.194 72.1289 38.333 72.1289 36.128ZM84.5748 39.53V39.278H84.5328C83.9238 40.328 82.6008 41 81.1728 41C78.1908 41 76.7628 38.732 76.7628 35.54C76.7628 32.936 78.1068 29.933 81.3408 29.933C82.7688 29.933 83.8818 30.416 84.6588 31.655H84.7008V30.185H87.3888V39.992C87.3888 43.646 85.4988 45.662 81.7188 45.662C80.6268 45.662 79.3248 45.515 77.9388 44.927L78.1698 42.533C79.1568 43.058 80.5008 43.478 81.3408 43.478C83.9868 43.478 84.5748 41.777 84.5748 39.53ZM82.0968 38.816C83.9028 38.816 84.5748 37.22 84.5748 35.477C84.5748 33.818 83.9868 32.117 82.2018 32.117C80.5218 32.117 79.7028 33.566 79.7028 35.54C79.7028 37.01 80.4798 38.816 82.0968 38.816ZM98.9667 38.102V40.391C97.9377 40.958 96.7617 41.252 95.2707 41.252C91.6797 41.252 89.6007 39.194 89.6007 35.645C89.6007 32.621 91.1757 29.933 94.6197 29.933C98.2947 29.933 99.7647 32.201 99.7647 36.464H92.2887C92.4147 38.165 93.5697 39.194 95.3967 39.194C96.7407 39.194 97.9167 38.69 98.9667 38.102ZM92.2887 34.532H97.0767C96.9717 32.978 96.2367 31.991 94.7667 31.991C93.3597 31.991 92.4357 32.915 92.2887 34.532ZM117.797 41H114.983V34.259C114.983 32.642 114.374 32.117 113.366 32.117C111.938 32.117 111.266 33.44 111.266 35.708V41H108.452V34.259C108.452 32.684 107.885 32.117 106.835 32.117C105.365 32.117 104.735 33.503 104.735 35.687V41H101.921V30.185H104.546V31.697H104.588C105.323 30.605 106.457 29.933 107.822 29.933C109.313 29.933 110.384 30.5 110.993 31.844C111.581 30.647 112.904 29.933 114.395 29.933C116.684 29.933 117.797 31.319 117.797 34.133V41ZM129.298 38.102V40.391C128.269 40.958 127.093 41.252 125.602 41.252C122.011 41.252 119.932 39.194 119.932 35.645C119.932 32.621 121.507 29.933 124.951 29.933C128.626 29.933 130.096 32.201 130.096 36.464H122.62C122.746 38.165 123.901 39.194 125.728 39.194C127.072 39.194 128.248 38.69 129.298 38.102ZM122.62 34.532H127.408C127.303 32.978 126.568 31.991 125.098 31.991C123.691 31.991 122.767 32.915 122.62 34.532ZM142.227 41H139.413V34.931C139.413 33.314 139.077 32.117 137.586 32.117C135.801 32.117 135.108 33.839 135.108 35.75V41H132.294V30.185H134.961V31.655H135.003C135.864 30.437 137.061 29.933 138.552 29.933C141.03 29.933 142.227 31.634 142.227 34.175V41ZM151.474 38.774L151.558 41C150.97 41.168 150.319 41.252 149.5 41.252C147.211 41.252 146.056 39.824 146.056 37.745V32.243H143.977V30.185H146.056V28.022L148.87 27.119V30.185H151.369V32.243H148.87V37.262C148.87 38.396 149.227 39.068 150.214 39.068C150.697 39.068 151.18 38.963 151.474 38.774Z" fill="white"/>-->
<path d="M418.88 252H409.24V224.08H419C424.68 224.08 428 226.52 428 231.2C428 234.44 425.92 236.84 422.44 237.48V237.56C426.32 237.92 428.84 240.56 428.84 243.92C428.84 249.4 424.92 252 418.88 252ZM414.84 235.36H417.04C420.72 235.36 422.4 234.16 422.4 231.96C422.4 229.84 421.28 228.48 417.4 228.48H414.84V235.36ZM414.84 247.6H417.52C421.16 247.6 423.24 246.32 423.24 243.72C423.24 240.8 421.36 239.52 417.64 239.52H414.84V247.6Z" fill="white"/>
<path d="M705 211H697.24V183.08H704.96C715.48 183.08 721 187.6 721 197.04C721 206.44 715.52 211 705 211ZM702.84 206.6H706C710.68 206.6 715.16 203.08 715.16 197.04C715.16 191.4 711.12 187.48 705.84 187.48H702.84V206.6Z" fill="white"/>
<circle cx="650" cy="46" r="29" fill="white"/>
<path d="M659.32 54.92L659.56 59.6C657.48 60.08 655.32 60.48 653.2 60.48C643.64 60.48 637.88 55.52 637.88 46.52C637.88 37.08 643.6 31.6 653.2 31.6C655.12 31.6 657.6 32 659.52 32.76L659.12 37.48C657.08 36.32 655.16 36 653.08 36C647.44 36 643.72 40.28 643.72 46.12C643.72 52 647.4 56.08 653.2 56.08C655.16 56.08 657.84 55.68 659.32 54.92Z" fill="#231F20"/>
</svg>
